<svg id="Artwork" xmlns="http://www.w3.org/2000/svg" viewBox="0 0 120.38 51.06"><defs><style>.cls-1{fill:#fff;}</style></defs><path class="cls-1" d="M22.75,6.59A9.27,9.27,0,0,0,24.88,0,9.18,9.18,0,0,0,18.8,3.14a8.65,8.65,0,0,0-2.17,6.33,7.64,7.64,0,0,0,6.12-2.88"/><path class="cls-1" d="M24.85,9.93c-3.38-.2-6.26,1.92-7.87,1.92S12.89,10,10.21,10.08a10,10,0,0,0-8.48,5.15c-3.63,6.26-1,15.55,2.58,20.65,1.71,2.53,3.78,5.31,6.51,5.21,2.57-.1,3.58-1.67,6.71-1.67s4,1.67,6.76,1.62,4.6-2.53,6.31-5a22.53,22.53,0,0,0,2.83-5.81,9.17,9.17,0,0,1-5.5-8.34A9.33,9.33,0,0,1,32.37,14a9.64,9.64,0,0,0-7.52-4.09"/><path class="cls-1" d="M54.3,2.89c7.35,0,12.47,5.07,12.47,12.44s-5.23,12.5-12.66,12.5H46V40.77H40.09V2.89ZM46,22.89h6.74c5.12,0,8-2.75,8-7.53s-2.92-7.51-8-7.51H46Z"/><path class="cls-1" d="M68.3,32.92c0-4.83,3.71-7.79,10.27-8.16l7.56-.45V22.19c0-3.08-2.07-4.91-5.54-4.91-3.28,0-5.33,1.57-5.83,4H69.41c.31-5,4.57-8.67,11.39-8.67s11,3.55,11,9.09v19H86.34V36.23h-.13a9.87,9.87,0,0,1-8.72,5C72.09,41.25,68.3,37.88,68.3,32.92Zm17.83-2.49V28.25l-6.8.42c-3.39.24-5.3,1.73-5.3,4.1s2,4,5,4C83,36.76,86.13,34,86.13,30.43Z"/><path class="cls-1" d="M96.91,50.93V46.34a10.93,10.93,0,0,0,1.83.1c2.63,0,4.05-1.1,4.91-3.93,0-.06.5-1.68.5-1.71l-10-27.65h6.14l7,22.48h.11l7-22.48h6L110,42.22c-2.36,6.69-5.09,8.84-10.81,8.84A21.44,21.44,0,0,1,96.91,50.93Z"/></svg>