<svg id="Layer_1" data-name="Layer 1" xmlns="http://www.w3.org/2000/svg" viewBox="0 0 308.09 297.59"><defs><style>.cls-1{fill:#fff;}</style></defs><path class="cls-1" d="M251.47,1.8c-1.61,1.45-3.11,3-4.84,4.34-14.87,11.2-28.4,23.61-37,40.53-4.84,9.55-7.1,19.55-5.74,30.37,1.45,11.45,9.91,20.35,21.3,19.37s22.83-3.72,34.05-6.48c12.57-3.09,24.88-7.22,37.39-10.61,8.71-2.36,11.41-.23,11.42,8.67q.07,61,0,122c0,8.31-3.25,10.54-11.4,8.23-18.67-5.3-37.31-10.73-56-15.77a58,58,0,0,0-14.29-1.71c-17.22-.22-23.69,13.41-22.76,28,1.27,20.06,12.44,35,26.28,48.3,5.74,5.5,12.27,10.18,18.34,15.36,1.13,1,1.77,2.51,2.63,3.79-1.47.48-3,1.47-4.41,1.36-12.76-.93-25.51-2.08-38.27-3.12-11.92-1-23.86-1.74-35.77-2.87-16.67-1.59-33.54-2.28-49.93-5.42-24.49-4.7-42.43-18.92-50.86-42.88-3.66-10.41-5.11-21.6-7.43-32.46-2.47-11.52-4.59-23.12-7.34-34.57-.5-2-3-4.32-5.1-5.19-15.52-6.35-31.19-12.33-46.75-18.58-1.84-.73-3.3-2.37-4.94-3.59,1.49-1.37,2.75-3.2,4.49-4,15.78-7.44,31.59-14.8,47.5-22a8.2,8.2,0,0,0,5.18-6.46c4.1-18.81,8.19-37.62,12.7-56.32,5.3-22,19.29-36.61,39.92-45.27,12.65-5.31,26.09-6.15,39.51-7.18Q177.13,5.55,205,3.36C218.37,2.29,231.78,1.08,245.2,0a35.47,35.47,0,0,1,5.69.45Z"/></svg>