<?xml version="1.0" encoding="utf-8"?>
<!-- Generator: Adobe Illustrator 26.0.1, SVG Export Plug-In . SVG Version: 6.00 Build 0)  -->
<svg version="1.1" id="Layer_1" xmlns="http://www.w3.org/2000/svg" xmlns:xlink="http://www.w3.org/1999/xlink" x="0px" y="0px"
	 viewBox="0 0 114.4 25.5" style="enable-background:new 0 0 114.4 25.5;" xml:space="preserve">
<path d="M20.1,0h-5.6c0,4.6-2.2,8.9-5.8,11.6l-2.2,1.7L15,25.1h7.1l-8-10.8C18,10.5,20.1,5.3,20.1,0z"/>
<polygon points="0,25.1 5.8,25.1 5.8,0 0,0 "/>
<polygon points="23.9,25.1 29.3,25.1 29.3,0 23.9,0 "/>
<path d="M77,7.3c-2.1,0-4,0.7-5.3,2.4V7.8h-5.2v17.3h5.2v-9.2c0-2.6,1.7-3.9,3.9-3.9c2.3,0,3.6,1.4,3.6,3.9v9.2h5.2V14
	C84.3,10,81.1,7.3,77,7.3L77,7.3z"/>
<path d="M41,20.9c-2.5,0.1-4.6-1.9-4.7-4.4l0,0c0.2-2.6,2.4-4.6,5-4.4c2.4,0.1,4.3,2,4.4,4.4C45.6,18.9,43.5,20.9,41,20.9z
	 M45.7,7.7v1.1c-4.2-2.8-9.8-1.7-12.6,2.5s-1.7,9.8,2.5,12.6c3.1,2.1,7.1,2.1,10.2,0v1.1h5.2V7.7L45.7,7.7L45.7,7.7z"/>
<path d="M58.9,10V7.7h-5.3v17.3h5.3V17c0-2.8,2.9-4.2,5-4.2H64v-5C62,7.7,60.2,8.5,58.9,10z"/>
<path d="M95.7,20.9c-2.5,0.1-4.6-1.9-4.7-4.4l0,0c0.1-2.6,2.3-4.6,4.9-4.4c2.4,0.1,4.3,2,4.4,4.4C100.3,18.9,98.2,20.9,95.7,20.9
	L95.7,20.9z M100.4,7.7v1.1c-4.2-2.8-9.9-1.7-12.7,2.4S86,21.2,90.1,24c3.1,2.1,7.2,2.1,10.3,0v1.1h5.2V7.7H100.4z"/>
<path d="M111.1,18.9c-1.8,0-3.2,1.4-3.2,3.2s1.4,3.2,3.2,3.2s3.2-1.4,3.2-3.2l0,0C114.4,20.4,112.9,18.9,111.1,18.9L111.1,18.9z"/>
</svg>
