<svg fill="none" height="24" viewBox="0 0 212 24" width="212" xmlns="http://www.w3.org/2000/svg"><path d="m27.1205 0h-23.24004c-.51742.00781957-1.02824.117492-1.50327.322755-.47504.205262-.90499.502092-1.26529.873535-.360302.37145-.643904.81024-.834606 1.2913-.1907022.48107-.28476978.99499-.27683021 1.51241v16c-.00793957.5174.08612801 1.0313.27683021 1.5124.190702.4811.474304.9199.834606 1.2913.3603.3715.79025.6683 1.26529.8735.47503.2053.98585.315 1.50327.3228h23.24004c.5174-.0078 1.0282-.1175 1.5032-.3228.4751-.2052.905-.502 1.2653-.8735.3603-.3714.6439-.8102.8346-1.2913s.2848-.995.2769-1.5124v-16c.0079-.51742-.0862-1.03134-.2769-1.51241-.1907-.48106-.4743-.91985-.8346-1.2913-.3603-.371443-.7902-.668273-1.2653-.873535-.475-.205263-.9858-.31493543-1.5032-.322755z" fill="#27337a"/><path d="m15.7905 10.9199c.0336.3502.1649.6839.3788.9632s.5019.493.8312.6168c.54.28.72.46.72.72s-.43.56-.83.57c-.4949.0072-.9824-.1207-1.41-.37l-.24 1.27c.4807.2043.9976.3097 1.52.31 1.45 0 2.39-.78 2.39-2 0-1.53-1.93-1.61-1.92-2.3 0-.2.19-.43.58-.48.469-.0495.9422.041 1.36.26l.24-1.23004c-.4132-.16623-.8546-.25112-1.3-.25-.2801-.03615-.5646-.01432-.8359.06413s-.5236.21185-.7412.39191-.3958.40293-.5236.6548c-.1278.2518-.2024.5272-.2193.8092zm5.93-1.81005c-.13-.00065-.2568.03954-.3627.1149-.1059.07537-.1854.1821-.2273.30511l-2.06 5.38004h1.44l.29-.91h1.76l.17.87h1.27l-1.11-5.80004zm.2 1.56005.42 2.18h-1.14zm-7.92-1.56005-1.13 5.80005h1.37l1.14-5.80005zm-2 0-1.43 4.00005-.57-3.41004c-.01248-.15922-.08402-.30802-.20058-.41719-.11657-.10917-.26974-.17081-.42943-.17282h-2.37v.16001c.47333.10618.9306.27429 1.36.5.0929.05006.17122.12337.2273.21276.05609.08938.08803.19178.0927.29728l1.1 4.63h1.45001l2.22-5.80005z" fill="#fff"/><path d="m36.2514 4h.0001l-.0001-.00384c-.0074-.48459.0807-.9659.2593-1.41644s.4442-.86148.7816-1.20936c.3375-.34788.7401-.625875 1.185-.818113.4443-.191993.9221-.294689 1.4061-.302247h23.2361c.484.007558.9617.110254 1.4061.302247.4448.192238.8475.470233 1.185.818113.3374.34788.603.75882.7816 1.20936s.2667.93185.2593 1.41644h-.0001v.00384 16l.0001.0038c.0074.4846-.0807.9659-.2593 1.4165-.1786.4505-.4442.8615-.7816 1.2093-.3375.3479-.7402.6259-1.185.8182-.4444.1919-.9221.2946-1.4061.3022h-23.2361c-.484-.0076-.9618-.1103-1.4061-.3022-.4449-.1923-.8475-.4703-1.185-.8182-.3374-.3478-.603-.7588-.7816-1.2093-.1786-.4506-.2667-.9319-.2593-1.4165v-.0038z" fill="#fff" stroke="#e7e7e7" stroke-width=".5"/><path d="m48.1611 17.4397c1.0349.0119 2.0499-.2842 2.9162-.8505s1.5447-1.3773 1.949-2.33.5163-2.0041.3217-3.0206-.687-1.95225-1.4146-2.6883c-.7276-.73604-1.6575-1.23919-2.6717-1.44552-1.0142-.20632-2.0668-.10651-3.0241.28675-.9574.39327-1.7762 1.06224-2.3525 1.92191-.5762.85966-.884 1.87126-.884 2.90626-.004.6815.1263 1.3572.3835 1.9884s.6362 1.2055 1.1153 1.6903c.4792.4847 1.0491.8703 1.6773 1.1347.6282.2645 1.3023.4026 1.9839.4066z" fill="#e7001a"/><path d="m54.3613 17.4397c1.0348.0119 2.0499-.2842 2.9162-.8505s1.5447-1.3773 1.949-2.33.5163-2.0041.3217-3.0206-.687-1.95225-1.4146-2.6883c-.7276-.73604-1.6575-1.23919-2.6717-1.44552-1.0142-.20632-2.0668-.10651-3.0241.28675-.9574.39327-1.7762 1.06224-2.3525 1.92191-.5763.85966-.884 1.87126-.884 2.90626-.004.6815.1263 1.3572.3835 1.9884s.6362 1.2055 1.1153 1.6903c.4792.4847 1.0491.8703 1.6773 1.1347.6282.2645 1.3023.4026 1.9839.4066z" fill="#f49b1c"/><path clip-rule="evenodd" d="m51.2611 8.0498c.6407.49008 1.1598 1.1212 1.5172 1.84438.3573.72322.5432 1.51902.5432 2.32562s-.1859 1.6024-.5432 2.3256c-.3574.7232-.8765 1.3543-1.5172 1.8444-.6407-.4901-1.1599-1.1212-1.5172-1.8444s-.5432-1.519-.5432-2.3256.1859-1.6024.5432-2.32562c.3573-.72318.8765-1.3543 1.5172-1.84438z" fill="#e7001a" fill-rule="evenodd" opacity=".3"/><path d="m99.1224 0h-23.24c-.5174.00781957-1.0282.117492-1.5033.322755-.475.205262-.9049.502092-1.2652.873535-.3603.37145-.644.81024-.8347 1.2913-.1907.48107-.2847.99499-.2768 1.51241v16c-.0079.5174.0861 1.0313.2768 1.5124s.4744.9199.8347 1.2913c.3603.3715.7902.6683 1.2652.8735.4751.2053.9859.315 1.5033.3228h23.24c.5174-.0078 1.0286-.1175 1.5036-.3228.475-.2052.905-.502 1.265-.8735.36-.3714.644-.8102.835-1.2913.19-.4811.284-.995.276-1.5124v-16c.008-.51742-.086-1.03134-.276-1.51241-.191-.48106-.475-.91985-.835-1.2913-.36-.371443-.79-.668273-1.265-.873535-.475-.205263-.9862-.31493543-1.5036-.322755z" fill="#0095ff"/><path d="m74.8338 8.98863-.6564-1.53781-.5439 1.55657zm12.8651-.72202c-.039.04759-.09.08396-.1476.10538-.0577.02142-.12.02712-.1806.01652h-1.1253v-.83454h1.1253c.1125 0 .2719 0 .3282.1219.0299-.00012.0596.00602.0871.01801.0274.01199.0521.02958.0724.05164.0203.02205.0358.0481.0454.07647.0097.02837.0133.05844.0107.0883 0 .20629-.0656.33757-.2156.35632zm7.6328.72202-.6471-1.53781-.5438 1.55657zm-13.9529 1.78157h-.872v-3.09433l-1.3128 3.09433h-.7595l-1.2002-3.09433v3.09433h-1.8754l-.3282-.8345h-1.7254l-.3281.8345h-.9377l1.5284-3.92888h1.3034l1.5284 3.69448v-3.69448h1.4065l1.0878 2.61616 1.0689-2.61616h1.4159zm3.4882 0h-2.813v-3.92888h2.813v.83455h-1.9597v.71264h1.9597v.83454h-1.9597v.71265h1.9597zm4.1446-2.81303c.0027.2232-.0575.44264-.1735.63331-.1161.19066-.2834.34487-.4829.44504.1673.02379.3204.107.4314.23442.1513.25176.2293.54082.225.83456v.7126h-.8908v-.5532c-.0025-.29284-.08-.58013-.225-.83455-.1595-.0898-.3436-.12596-.5251-.10315h-.9377v1.4253h-.8721v-3.91018h1.9598c.3789-.05336.7644.02973 1.0877.23443.1517.07595.2764.19683.3569.34617.0805.14933.1131.31987.0932.48837zm1.3034 2.81303h-.872v-3.92888h.872zm10.249 0h-1.1909l-1.641-2.97243v2.97243h-1.7441l-.4407-.8345h-1.7441l-.3282.8345h-.9377c-.24.0163-.4808-.0179-.7069-.1002-.2261-.0824-.4325-.2111-.6058-.378-.3213-.40217-.4757-.91243-.4314-1.42527-.0445-.55059.1084-1.09905.4314-1.54718.1716-.16932.3777-.29968.6042-.3822.2266-.08252.4682-.11527.7085-.09603h.8721v.83455h-.8721c-.2407-.0091-.4758.07485-.6563.23442-.148.29005-.2221.61214-.2157.93769-.0107.29323.0642.58323.2157.83454.0867.08307.19.14689.3031.18729.1131.04039.2335.05646.3532.04713h.272l1.3034-3.09437h1.2002l1.5284 3.69453v-3.67578h1.3034l1.5285 2.73806v-2.73806h.8718zm-28.562.7127h1.5284l.3282-.8346h.647l.3282.8346h2.9724v-.7127l.3282.7127h1.416l.3281-.7127v.7127h7.1921v-1.4253h.1125c.1219 0 .1501 0 .1126.2344v1.1909h3.8164v-.3563c.3877.2494.8426.3738 1.3033.3563h1.6129l.3188-.8346h.7689l.3282.8346h3.0475v-.8346l.4407.8346h2.4006v-5.47612h-2.4006v.60012l-.3282-.60012h-2.513v.60012l-.3188-.60012h-3.2726c-.4981-.03835-.9952.08674-1.4159.35632v-.35632h-2.2973v.35632c-.2542-.23647-.5906-.36432-.9377-.35632h-8.4392l-.6658 1.44404-.5438-1.42528h-2.5974v.58136l-.3282-.60012h-2.1567l-1.1158 2.61615zm31 2.166h-1.641c-.06-.0056-.121.0024-.178.0235s-.108.0548-.15.0984c-.066 0-.103.1032-.103.2345-.003.0606.018.1199.058.1654.041.0455.097.0736.157.0784.103.0563.214.0974.329.1219h.431c.164-.0259.331-.0184.493.0219.161.0402.312.1125.445.2125.043.0352.08.0762.112.1219zm0 2.5037c-.137.1891-.317.3419-.527.4449-.209.103-.44.1531-.673.1458h-1.641v-.9377h1.641c.105.0423.223.0423.328 0 .051-.042.088-.0986.107-.1622.018-.0636.017-.1312-.004-.1941 0-.0563 0-.15-.103-.2438-.035-.0173-.074-.0264-.113-.0264s-.077.0091-.112.0264c-.853-.075-1.876 0-1.876-1.3034-.013-.1576.01-.3163.069-.4632.059-.147.151-.2781.269-.383.119-.1048.26-.1804.413-.2207s.314-.0442.468-.0114h1.745v-.8346h-1.641c-.394-.0131-.779.1131-1.088.3564v-.3564h-2.2787c-.1959-.0157-.3929.0077-.5796.0689-.1868.0612-.3595.1589-.5081.2875v-.3564h-4.2571v.3564c-.3085-.2448-.6943-.3712-1.0877-.3564h-2.8131v.3564c-.2438-.3189-.8439-.3564-1.2002-.3564h-3.1694l-.647.8346-.6564-.8346h-4.6885v5.4761h4.576l.7689-.8345.647.8345h2.813v-1.3127h.2157c.4042.0432.813.0017 1.2003-.1219v1.4346h2.4004v-1.4346h.1032c.1313 0 .1406 0 .1125.1219v1.3127h7.0889c.4271.0066.846-.1177 1.2003-.3563v.3563h2.1756c.45.0115.897-.0716 1.313-.2438zm-3.3851-1.4253c.1795.2389.26.5378.225.8345 0 .7877-.4969 1.1815-1.4252 1.1815h-1.6316v-.8533h1.6503c.1564.0096.3115-.0333.4407-.1219l.1032-.2344c-.0248-.085-.0594-.1668-.1032-.2438-.0922-.077-.208-.12-.3282-.1219-.8345 0-1.8753 0-1.8753-1.1909-.0115-.1597.0118-.32.0684-.4698.0565-.1498.1449-.2856.259-.3979.1141-.1124.2512-.1986.4019-.2528.1507-.0541.3114-.0749.4709-.061h1.7441v.8252h-1.5284c-.1782 0-.2813 0-.3189.1219-.0375.1219-.1781.1125-.225.2344s.1219.2532.225.2438c.0939.0677.2038.1097.3189.1219h.5532c.1809-.0125.3623.0156.531.0821s.3205.1698.4442.3024zm-7.961-.4782c-.0375.0468-.0868.0828-.1429.1042-.056.0214-.1167.0275-.1759.0177h-1.0971v-.8346h1.0971c.1125 0 .2626 0 .3188.1125.0312-.0001.0621.0063.0907.0188.0286.0124.0543.0307.0755.0536.0211.023.0373.05.0474.0796.0102.0295.0141.0608.0115.0918-.0094.197-.0657.3282-.2251.3564zm.5533.7126c.1655.0289.317.1113.4313.2344.126.2211.1997.4681.2157.7221v.8251h-.8721v-.4688c.0066-.2928-.068-.5817-.2157-.8346-.0937-.0937-.2813-.1312-.6563-.1219h-.8721v1.4253h-.872v-3.9195h1.9691c.3786-.0463.7618.0363 1.0877.2344.1492.0777.2707.1996.3479.349.0772.1493.1063.3189.0835.4855.0011.2193-.0589.4345-.1732.6217-.1142.1871-.2783.3387-.4738.4379zm1.2002-2.1379h2.8131v.8251h-1.9411v.7221h1.9598v.8251h-1.9598v.6939h1.9598v.8252h-2.8131zm-5.8887 1.6597h-1.0971v-.9377h1.0971c.3282 0 .5439.1313.5439.4688 0 .3376-.2063.4689-.5439.4689zm-1.9691 1.791-1.3034-1.5472 1.3034-1.5472zm-3.3757-.4782h-2.1848v-.7127h1.9691v-.8345h-1.9691v-.7127h2.1848l.9377 1.069zm6.7607-1.6691c0 1.0783-.7501 1.3034-1.5284 1.3127h-1.0877v1.3034h-1.641l-1.0877-1.3034-1.0971 1.3034h-3.3757v-3.9195h3.4882l.9377 1.3034 1.0877-1.3034h2.8131c.722 0 1.4909.2532 1.4909 1.3034z" fill="#fff"/><path d="m144.254 4v-.00384c-.007-.48459.081-.9659.26-1.41644.178-.45054.444-.86148.781-1.20936.338-.34788.74-.625875 1.185-.818113.445-.191993.922-.294689 1.406-.302247h23.236c.484.007558.962.110254 1.406.302247.445.192238.848.470233 1.185.818113.338.34788.604.75882.782 1.20936.179.45054.267.93185.259 1.41644v.00384 16 .0038c.008.4846-.08.9659-.259 1.4165-.178.4505-.444.8615-.782 1.2093-.337.3479-.74.6259-1.185.8182-.444.1919-.922.2946-1.406.3022h-23.236c-.484-.0076-.961-.1103-1.406-.3022-.445-.1923-.847-.4703-1.185-.8182-.337-.3478-.603-.7588-.781-1.2093-.179-.4506-.267-.9319-.26-1.4165v-.0038z" fill="#fff" stroke="#e7e7e7" stroke-width=".5"/><path d="m151.755 8.41817c-.305.37155-.793.66461-1.28.62274-.061-.50238.178-1.03615.457-1.36584.305-.38202.838-.65414 1.27-.67507.05.52331-.148 1.03616-.447 1.41817zm.441.72217c-.705-.04186-1.31.41342-1.645.41342-.34 0-.853-.39249-1.412-.38202-.726.01047-1.402.43435-1.772 1.10946-.762 1.3501-.198 3.3492.538 4.4481.361.5442.792 1.1408 1.361 1.1199.538-.0209.752-.3611 1.402-.3611.655 0 .843.3611 1.412.3506.589-.0104.96-.5442 1.32-1.0885.411-.6175.579-1.2193.589-1.2507-.01-.0104-1.137-.4553-1.148-1.7949-.01-1.1199.889-1.6537.93-1.6851-.508-.7745-1.3-.85822-1.575-.87916zm4.079-1.5176v8.15846h1.229v-2.7893h1.701c1.554 0 2.646-1.0989 2.646-2.6898 0-1.59087-1.072-2.67936-2.605-2.67936zm1.229 1.06755h1.417c1.066 0 1.676.58611 1.676 1.61701s-.61 1.6223-1.681 1.6223h-1.412zm6.592 7.15371c.772 0 1.488-.403 1.813-1.0414h.025v.9786h1.138v-4.0609c0-1.1775-.914-1.93628-2.321-1.93628-1.305 0-2.27.76928-2.306 1.82638h1.107c.092-.5024.544-.8321 1.163-.8321.752 0 1.174.3611 1.174 1.0257v.45l-1.534.0942c-1.427.089-2.199.6908-2.199 1.7374 0 1.0571.797 1.7584 1.94 1.7584zm.33-.9682c-.655 0-1.072-.3244-1.072-.8216 0-.5128.402-.8111 1.168-.8582l1.367-.089v.4606c0 .764-.63 1.3082-1.463 1.3082zm4.165 3.1242c1.198 0 1.762-.471 2.254-1.8996l2.159-6.23789h-1.249l-1.448 4.81969h-.025l-1.448-4.81969h-1.285l2.083 5.93959-.112.3611c-.188.6123-.493.8477-1.036.8477-.097 0-.285-.0104-.361-.0209v.9786c.071.0209.376.0314.468.0314z" fill="#000"/><path d="m180.255 4v-.00384c-.007-.48459.081-.9659.26-1.41644.178-.45054.444-.86148.781-1.20936.338-.34788.74-.625875 1.185-.818113.445-.191993.922-.294689 1.406-.302247h23.236c.484.007558.962.110254 1.406.302247.445.192238.848.470233 1.185.818113.338.34788.604.75882.782 1.20936.179.45054.267.93185.259 1.41644v.00384 16 .0038c.008.4846-.08.9659-.259 1.4165-.178.4505-.444.8615-.782 1.2093-.337.3479-.74.6259-1.185.8182-.444.1919-.922.2946-1.406.3022h-23.236c-.484-.0076-.961-.1103-1.406-.3022-.445-.1923-.847-.4703-1.185-.8182-.337-.3478-.603-.7588-.781-1.2093-.179-.4506-.267-.9319-.26-1.4165v-.0038z" fill="#fff" stroke="#e7e7e7" stroke-width=".5"/><path d="m195.294 11.9795v2.9868h-.975v-7.38656h2.535c.617 0 1.202.22481 1.657.64231.454.38538.682.96346.682 1.57365 0 .6102-.228 1.1562-.682 1.5737-.455.4175-1.008.6423-1.657.6423zm0-3.50053v2.56923h1.625c.357 0 .714-.1285.942-.3854.52-.4817.52-1.2846.032-1.76633l-.032-.03212c-.26-.25692-.585-.4175-.942-.38538z" fill="#5f6368"/><path d="m201.435 9.76352c.715 0 1.267.19269 1.689.57808.423.3854.618.8992.618 1.5415v3.0831h-.91v-.7065h-.033c-.39.578-.942.8671-1.592.8671-.552 0-1.039-.1606-1.429-.4817-.358-.3212-.585-.7708-.585-1.2525 0-.5139.195-.9314.585-1.2525.39-.3212.942-.4497 1.592-.4497.585 0 1.039.0964 1.397.3212v-.2248c0-.3212-.13-.6423-.39-.835-.26-.2248-.585-.3533-.942-.3533-.553 0-.975.2248-1.267.6744l-.845-.5138c.52-.6744 1.202-.99558 2.112-.99558zm-1.235 3.66118c0 .2569.13.4817.325.6102.227.1605.487.2569.747.2569.39 0 .78-.1606 1.072-.4496.325-.2891.488-.6423.488-1.0277-.293-.2248-.715-.3533-1.267-.3533-.39 0-.715.0964-.975.289-.26.1606-.39.3854-.39.6745z" fill="#5f6368"/><path d="m209.005 9.9241-3.217 7.2902h-.974l1.202-2.5371-2.112-4.72099h1.04l1.527 3.62899h.032l1.495-3.62899h1.007z" fill="#5f6368"/><path d="m191.428 11.3372c0-.289-.033-.578-.065-.8671h-4.061v1.6379h2.307c-.098.5139-.39.9956-.845 1.2846v1.0598h1.397c.812-.7386 1.267-1.8305 1.267-3.1152z" fill="#4285f4"/><path d="m187.302 15.4801c1.169 0 2.144-.3854 2.859-1.0277l-1.397-1.0598c-.39.2569-.878.4175-1.462.4175-1.105 0-2.08-.7387-2.405-1.7664h-1.429v1.092c.747 1.4452 2.209 2.3444 3.834 2.3444z" fill="#34a853"/><path d="m184.897 12.0437c-.195-.5138-.194-1.0919 0-1.6378v-1.09196h-1.429c-.617 1.18826-.617 2.60136 0 3.82176z" fill="#fbbc04"/><path d="m187.302 8.67173c.617 0 1.202.2248 1.657.6423l1.234-1.22038c-.779-.70654-1.819-1.12404-2.859-1.09192-1.624 0-3.119.89923-3.834 2.34442l1.43 1.09195c.292-1.02772 1.267-1.76637 2.372-1.76637z" fill="#ea4335"/><path d="m135.123 0h-23.24c-.517.00781957-1.028.117492-1.503.322755-.475.205262-.905.502092-1.265.873535-.36.37145-.644.81024-.835 1.2913-.19.48107-.285.99499-.277 1.51241v16c-.008.5174.087 1.0313.277 1.5124.191.4811.475.9199.835 1.2913.36.3715.79.6683 1.265.8735.475.2053.986.315 1.503.3228h23.24c.518-.0078 1.029-.1175 1.504-.3228.475-.2052.905-.502 1.265-.8735.36-.3714.644-.8102.835-1.2913.19-.4811.284-.995.276-1.5124v-16c.008-.51742-.086-1.03134-.276-1.51241-.191-.48106-.475-.91985-.835-1.2913-.36-.371443-.79-.668273-1.265-.873535-.475-.205263-.986-.31493543-1.504-.322755z" fill="#ffd140"/><g clip-rule="evenodd" fill-rule="evenodd"><path d="m128.375 11.8568h-.719c-.068 0-.132.0342-.172.0913l-.992 1.4611-.421-1.4041c-.027-.0884-.107-.1483-.2-.1483h-.707c-.068 0-.124.0556-.124.1241 0 .0142.003.027.008.0399l.792 2.3235-.744 1.0506c-.016.0214-.023.0456-.023.0727 0 .0684.056.124.124.124h.719c.068 0 .131-.0328.169-.0898l2.392-3.4511c.014-.0214.023-.0456.023-.0713 0-.0684-.056-.124-.124-.124zm-4.756 1.3272c-.068.4091-.393.6828-.807.6828-.208 0-.373-.067-.48-.1925-.106-.1254-.145-.3036-.113-.5032.065-.4048.395-.6885.801-.6885.204 0 .368.067.478.1953.108.1283.153.3079.121.5061zm.945-1.3272h-.715c-.062 0-.114.0442-.123.1055l-.031.1996-.05-.0727c-.156-.2252-.5-.2994-.845-.2994-.792 0-1.466.5987-1.598 1.4383-.069.4191.028.8197.266 1.0991.218.2566.53.3635.901.3635.637 0 .991-.4091.991-.4091l-.032.1981s-.001.0128-.001.02c0 .0684.056.124.124.124h.644c.103 0 .19-.0741.206-.1753l.386-2.449s.001-.0128.001-.02c0-.0684-.055-.124-.124-.124zm-4.293.0171c-.082.536-.492.536-.888.536h-.226l.159-1.0007c.01-.0598.061-.1055.122-.1055h.103c.269 0 .524 0 .656.154.078.0912.102.2281.072.4162zm-.173-1.3998c.501 0 .877.1326 1.089.382.194.2267.258.5517.191.9651-.148.9437-.717 1.4198-1.7 1.4198h-.474c-.102 0-.189.0741-.205.1753l-.162 1.0335c-.016.1012-.103.1753-.206.1753h-.712c-.069 0-.124-.0556-.124-.124 0-.0071 0-.0128.001-.0185l.605-3.8317c.015-.1012.102-.1754.205-.1754h1.494z" fill="#253b80"/><path d="m136.065 10.5796-.613 3.9015s-.001.0129-.001.02c0 .0684.055.124.124.124h.617c.103 0 .19-.0741.205-.1753l.605-3.8317s.001-.0128.001-.02c0-.0684-.056-.124-.124-.124h-.69c-.061 0-.112.0442-.122.1055zm-1.834 2.6699c-.069.4091-.394.6828-.807.6828-.207 0-.374-.067-.481-.1924-.105-.1254-.145-.3036-.112-.5032.065-.4048.395-.6885.801-.6885.204 0 .368.067.477.1953.11.1283.153.3079.122.506zm.99-1.3927h-.715c-.062 0-.113.0442-.123.1055l-.031.1996-.05-.0727c-.156-.2252-.501-.2994-.846-.2994-.791 0-1.465.5987-1.596 1.4383-.068.4191.028.8197.267 1.0991.218.2566.53.3635.9.3635.638 0 .991-.4091.991-.4091l-.031.1981s-.002.0128-.002.02c0 .0684.056.124.124.124h.645c.102 0 .189-.0741.205-.1753l.386-2.449s0-.0128 0-.0185c0-.0685-.055-.1255-.125-.1255zm-4.29-.0099c-.082.5359-.492.5359-.889.5359h-.225l.158-1.0006c.01-.0599.062-.1055.123-.1055h.104c.27 0 .525 0 .656.1539.078.0912.102.2281.073.4163zm-.176-1.3714c.501 0 .877.1326 1.089.3821.194.2266.258.5516.191.965-.148.9437-.717 1.4198-1.7 1.4198h-.474c-.102 0-.189.0741-.205.1753l-.171 1.0863c-.011.0698-.071.1225-.144.1225h-.767c-.068 0-.124-.0556-.124-.124 0-.0071 0-.0128.002-.0199l.604-3.8317c.016-.1012.103-.1754.205-.1754z" fill="#179bd7"/><path d="m111.591 15.3694.114-.7256-.255-.0057h-1.215l.844-5.35553c.006-.03422.034-.05845.068-.05845h2.05c.68 0 1.151.14112 1.396.42052.115.13114.188.26799.224.41906.037.1583.038.3478.001.5773l-.003.0172v.1482l.116.0656c.088.0442.166.104.232.1767.098.1126.162.2552.188.4234.027.1739.019.3806-.027.6144-.053.2694-.137.5032-.252.6956-.101.1711-.237.3208-.399.4362-.153.1084-.333.1896-.538.2423-.198.0514-.423.077-.671.077h-.16c-.114 0-.225.0414-.312.1155s-.144.1767-.163.2894l-.011.0655-.202 1.2787-.009.047c-.003.0143-.007.0228-.013.0271-.005.0043-.013.0071-.021.0071h-.985z" fill="#253b80"/><path d="m115.037 10.6748c-.005.0385-.012.0784-.021.1197-.271 1.387-1.194 1.8674-2.376 1.8674h-.602c-.144 0-.266.1055-.288.2466l-.308 1.9529-.087.5531c0 .0085-.001.0157-.001.0242 0 .0855.068.154.154.154h1.066c.127 0 .234-.0913.254-.2167l.01-.0542.201-1.2744.013-.0698c.02-.1254.127-.2167.253-.2167h.16c1.034 0 1.842-.4191 2.078-1.6336.099-.5074.048-.9308-.213-1.2287-.083-.0927-.181-.1682-.293-.2253z" fill="#179bd7"/><path d="m114.755 10.5623c-.085-.0243-.173-.0442-.262-.0585-.168-.0256-.338-.0385-.507-.0385h-1.63c-.127 0-.233.0927-.252.2167l-.342 2.1639-.01.0627c.023-.1425.144-.248.288-.248h.601c1.181 0 2.106-.479 2.377-1.8674.008-.0413.014-.0813.021-.1197-.071-.0371-.145-.0685-.222-.0941-.02-.0072-.04-.0129-.06-.0186z" fill="#222d65"/><path d="m112.103 10.6821c.018-.1241.127-.2167.252-.2167h1.606c.191 0 .368.0128.531.0385.11.0171.218.0427.323.077.08.027.154.0584.223.094.08-.5131 0-.86238-.278-1.17741-.305-.34781-.857-.49749-1.564-.49749h-2.05c-.144 0-.266.10549-.289.24803l-.851 5.40967c0 .0086-.003.0186-.003.0271 0 .0969.078.1753.175.1768h1.265l.318-2.0157z" fill="#253b80"/></g></svg>