<svg id="Layer_1" data-name="Layer 1" xmlns="http://www.w3.org/2000/svg" xmlns:xlink="http://www.w3.org/1999/xlink" width="140px" viewBox="0 0 139.6 24"><defs><style>.cls-1,.cls-4{fill:#fff;}.cls-2{fill:#0095ff;}.cls-3{mask:url(#mask);}.cls-4{stroke:#e5e5e5;}.cls-5,.cls-7{fill:#e7001a;}.cls-6{fill:#f49b1c;}.cls-10,.cls-7{fill-rule:evenodd;}.cls-7{isolation:isolate;opacity:0.3;}.cls-8{fill:#27337a;}.cls-9{fill:#feb4c7;stroke:#d9d9d9;}.cls-10{fill:#17120f;}</style><mask id="mask" x="68.81" y="-4" width="33.06" height="34" maskUnits="userSpaceOnUse"><g id="mask-2"><rect id="path-1" class="cls-1" x="70" y="-4" width="31" height="34" rx="8"/></g></mask></defs><g id="Page-1"><g id="amex"><path id="Shape" class="cls-2" d="M73.63,0H97.37A3.73,3.73,0,0,1,101,3.83V20.17A3.73,3.73,0,0,1,97.37,24H73.63A3.73,3.73,0,0,1,70,20.17V3.83A3.73,3.73,0,0,1,73.63,0Z"/><g id="Clipped"><g id="Group-Clipped"><g class="cls-3"><g id="Group"><g id="Shape-2" data-name="Shape"><path class="cls-1" d="M71.83,9.64,71.13,8l-.58,1.66Zm13.72-.77A.37.37,0,0,1,85.2,9H84V8.11H85.2c.12,0,.29,0,.35.13a.23.23,0,0,1,.23.25C85.78,8.71,85.71,8.85,85.55,8.87Zm8.14.77L93,8l-.58,1.66Zm-14.88,1.9h-.93V8.24l-1.4,3.3h-.81l-1.28-3.3v3.3h-2l-.35-.89H70.2l-.35.89h-1l1.63-4.19h1.39l1.63,3.94V7.35H75l1.16,2.79L77.3,7.35h1.51Zm3.72,0h-3V7.35h3v.89H80.44V9h2.09v.89H80.44v.76h2.09Zm4.42-3a1.27,1.27,0,0,1-.7,1.15.75.75,0,0,1,.46.25,1.68,1.68,0,0,1,.24.89v.76H86V11a1.83,1.83,0,0,0-.24-.89A.91.91,0,0,0,85.2,10h-1v1.52h-.93V7.35h2.09a1.72,1.72,0,0,1,1.16.25A.88.88,0,0,1,87,8.49Zm1.39,3h-.93V7.35h.93Zm10.93,0H98L96.25,8.37v3.17H94.39l-.47-.89H92.06l-.35.89h-1a1.84,1.84,0,0,1-1.4-.51,2.14,2.14,0,0,1-.46-1.52,2.48,2.48,0,0,1,.46-1.65,1.79,1.79,0,0,1,1.4-.51h.93v.89h-.93a1,1,0,0,0-.7.25,2.11,2.11,0,0,0-.23,1,1.61,1.61,0,0,0,.23.89.91.91,0,0,0,.7.25H91l1.39-3.3h1.28l1.63,3.94V7.35h1.39l1.63,2.92V7.35h.93Zm-30.46.76h1.63l.35-.89h.69l.35.89H75v-.76l.35.76h1.51l.35-.76v.76h7.67V10.78H85c.13,0,.16,0,.12.25V12.3h4.07v-.38a2.4,2.4,0,0,0,1.39.38H92.3l.34-.89h.82l.35.89h3.25v-.89l.47.89h2.56V6.46H97.53V7.1l-.35-.64H94.5V7.1l-.34-.64H90.67a2.45,2.45,0,0,0-1.51.38V6.46H86.71v.38a1.42,1.42,0,0,0-1-.38h-9L76,8l-.58-1.52H72.65V7.1l-.35-.64H70L68.81,9.25Zm33.06,2.31h-1.75a.43.43,0,0,0-.35.13c-.07,0-.11.11-.11.25a.25.25,0,0,0,.23.26,1.29,1.29,0,0,0,.35.13h.46a1.32,1.32,0,0,1,1,.25.64.64,0,0,1,.12.13Zm0,2.67a1.52,1.52,0,0,1-1.28.63H98.84v-1h1.75a.47.47,0,0,0,.35,0,.35.35,0,0,0,.11-.38c0-.06,0-.16-.11-.26a.27.27,0,0,0-.24,0c-.91-.08-2,0-2-1.39A1.08,1.08,0,0,1,100,13.73h1.86v-.89h-1.75a1.78,1.78,0,0,0-1.16.38v-.38H96.52a1.58,1.58,0,0,0-1.16.38v-.38H90.82v.38a1.76,1.76,0,0,0-1.16-.38h-3v.38c-.26-.34-.9-.38-1.28-.38H82l-.69.89-.7-.89h-5v5.84h4.88l.82-.89.69.89h3v-1.4h.23a3.12,3.12,0,0,0,1.28-.13v1.53h2.56V17.15h.11c.14,0,.15,0,.12.13v1.4h7.56a2.23,2.23,0,0,0,1.28-.38v.38h2.32a3.43,3.43,0,0,0,1.4-.26Zm-3.61-1.52a1.24,1.24,0,0,1,.24.89c0,.84-.53,1.26-1.52,1.26H95.24V17H97a.75.75,0,0,0,.47-.13l.11-.25a1.21,1.21,0,0,0-.11-.26.56.56,0,0,0-.35-.13c-.89,0-2,0-2-1.27a1.18,1.18,0,0,1,1.28-1.26h1.86v.88H96.63c-.19,0-.3,0-.34.13s-.19.12-.24.25.13.27.24.26a.71.71,0,0,0,.34.13h.59A1.3,1.3,0,0,1,98.26,15.76Zm-8.49-.51a.36.36,0,0,1-.34.13H88.26v-.89h1.17c.12,0,.28,0,.34.12a.24.24,0,0,1,.24.26C90,15.08,89.94,15.22,89.77,15.25Zm.59.76a.82.82,0,0,1,.46.25,1.78,1.78,0,0,1,.23.77v.88h-.93v-.5a1.69,1.69,0,0,0-.23-.89c-.1-.1-.3-.14-.7-.13h-.93v1.52h-.93V13.73h2.1a1.81,1.81,0,0,1,1.16.25.87.87,0,0,1,.46.89A1.26,1.26,0,0,1,90.36,16Zm1.28-2.28h3v.88H92.57v.77h2.09v.88H92.57V17h2.09v.88h-3ZM85.36,15.5H84.19v-1h1.17c.35,0,.58.14.58.5S85.72,15.5,85.36,15.5Zm-2.1,1.91-1.39-1.65,1.39-1.65Zm-3.6-.51H77.33v-.76h2.1v-.89h-2.1v-.76h2.33l1,1.14Zm7.21-1.78c0,1.15-.8,1.39-1.63,1.4H84.08v1.39H82.33l-1.16-1.39L80,17.91H76.4V13.73h3.72l1,1.39,1.16-1.39h3C86.05,13.73,86.87,14,86.87,15.12Z"/></g></g></g></g></g></g><g id="mastercard"><path id="Shape-3" data-name="Shape" class="cls-4" d="M38.63.5H62.37A3.65,3.65,0,0,1,66,4.17V19.83a3.65,3.65,0,0,1-3.63,3.67H38.63A3.65,3.65,0,0,1,35,19.83V4.17A3.65,3.65,0,0,1,38.63.5Z"/><path id="Shape-4" data-name="Shape" class="cls-5" d="M47.4,17.22A5.22,5.22,0,1,0,42.24,12,5.19,5.19,0,0,0,47.4,17.22Z"/><path id="Shape-5" data-name="Shape" class="cls-6" d="M53.6,17.22A5.22,5.22,0,1,0,48.44,12,5.19,5.19,0,0,0,53.6,17.22Z"/><path id="Shape-6" data-name="Shape" class="cls-7" d="M50.5,7.83a5.25,5.25,0,0,1,0,8.34,5.25,5.25,0,0,1,0-8.34Z"/></g><g id="visa"><path id="Shape-7" data-name="Shape" class="cls-8" d="M27.12,0H3.88A3.94,3.94,0,0,0,0,4V20a3.94,3.94,0,0,0,3.88,4H27.12A3.94,3.94,0,0,0,31,20V4A3.94,3.94,0,0,0,27.12,0Z"/><path id="Shape-8" data-name="Shape" class="cls-1" d="M15.79,10.92A1.88,1.88,0,0,0,17,12.5c.54.28.72.46.72.72s-.43.56-.83.57a2.72,2.72,0,0,1-1.41-.37l-.24,1.27a3.89,3.89,0,0,0,1.52.31c1.45,0,2.39-.78,2.39-2,0-1.53-1.93-1.61-1.92-2.3,0-.2.19-.43.58-.48a2.39,2.39,0,0,1,1.36.26l.24-1.23A3.46,3.46,0,0,0,18.11,9,2.06,2.06,0,0,0,15.79,10.92Zm5.93-1.81a.62.62,0,0,0-.59.42l-2.06,5.38h1.44L20.8,14h1.76l.17.87H24l-1.11-5.8Zm.2,1.56.42,2.18H21.2ZM14,9.11l-1.13,5.8h1.37l1.14-5.8Zm-2,0-1.43,4L10,9.7a.64.64,0,0,0-.63-.59H7l0,.16a5.52,5.52,0,0,1,1.36.5.61.61,0,0,1,.32.51l1.1,4.63h1.45l2.22-5.8Z"/></g></g><rect class="cls-9" x="105.72" y="0.5" width="33.38" height="22.74" rx="2.66"/><path class="cls-10" d="M110.72,15.14h-1.38V9h1.38ZM114.16,9h-1.35a3.57,3.57,0,0,1-1.39,2.86l-.53.41,2.07,2.9h1.7l-1.91-2.67A5,5,0,0,0,114.16,9Zm2.2,6.17h-1.3V9h1.3Zm3.93-4.27v.27a2.17,2.17,0,0,0-1.23-.39,2.26,2.26,0,0,0,0,4.51,2.17,2.17,0,0,0,1.23-.39v.27h1.25V10.87Zm0,2.13a1.13,1.13,0,1,1-1.13-1.09A1.12,1.12,0,0,1,120.29,13Zm13.12-1.86v-.27h1.24v4.27h-1.24v-.27a2.26,2.26,0,1,1,0-3.73Zm-1.13,3a1.1,1.1,0,1,0-1.13-1.1A1.11,1.11,0,0,0,132.28,14.1Zm2.91.33a.78.78,0,1,1,.78.8A.79.79,0,0,1,135.19,14.43Zm-7.42-3.68a1.5,1.5,0,0,0-1.28.6v-.48h-1.23v4.27h1.25V12.89a.88.88,0,0,1,.93-1c.55,0,.86.33.86,1v2.25h1.24V12.42A1.66,1.66,0,0,0,127.77,10.75Zm-4.31.12v.56a1.51,1.51,0,0,1,1.22-.56v1.24h0a1.16,1.16,0,0,0-1.2,1v2h-1.27V10.87Z"/></svg>