<svg width="189" height="35" viewBox="0 0 189 35" fill="none" xmlns="http://www.w3.org/2000/svg">
<rect x="0.5" y="0.5" width="187.313" height="34" rx="9.5" fill="white"/>
<path d="M10.8608 22V13.2727H14.1335C14.804 13.2727 15.3665 13.3977 15.821 13.6477C16.2784 13.8977 16.6236 14.2415 16.8565 14.679C17.0923 15.1136 17.2102 15.608 17.2102 16.1619C17.2102 16.7216 17.0923 17.2187 16.8565 17.6534C16.6207 18.0881 16.2727 18.4304 15.8125 18.6804C15.3523 18.9276 14.7855 19.0511 14.1122 19.0511H11.9432V17.7514H13.8991C14.2912 17.7514 14.6122 17.6832 14.8622 17.5469C15.1122 17.4105 15.2969 17.223 15.4162 16.9844C15.5384 16.7457 15.5994 16.4716 15.5994 16.1619C15.5994 15.8523 15.5384 15.5795 15.4162 15.3438C15.2969 15.108 15.1108 14.9247 14.858 14.794C14.608 14.6605 14.2855 14.5938 13.8906 14.5938H12.4418V22H10.8608ZM21.2766 22.1278C20.6374 22.1278 20.0835 21.9872 19.6147 21.706C19.146 21.4247 18.7823 21.0312 18.5238 20.5256C18.2681 20.0199 18.1403 19.429 18.1403 18.7528C18.1403 18.0767 18.2681 17.4844 18.5238 16.9759C18.7823 16.4673 19.146 16.0724 19.6147 15.7912C20.0835 15.5099 20.6374 15.3693 21.2766 15.3693C21.9158 15.3693 22.4698 15.5099 22.9386 15.7912C23.4073 16.0724 23.7695 16.4673 24.0252 16.9759C24.2837 17.4844 24.413 18.0767 24.413 18.7528C24.413 19.429 24.2837 20.0199 24.0252 20.5256C23.7695 21.0312 23.4073 21.4247 22.9386 21.706C22.4698 21.9872 21.9158 22.1278 21.2766 22.1278ZM21.2852 20.892C21.6317 20.892 21.9215 20.7969 22.1545 20.6065C22.3874 20.4134 22.5607 20.1548 22.6744 19.831C22.7908 19.5071 22.8491 19.1463 22.8491 18.7486C22.8491 18.348 22.7908 17.9858 22.6744 17.6619C22.5607 17.3352 22.3874 17.0753 22.1545 16.8821C21.9215 16.6889 21.6317 16.5923 21.2852 16.5923C20.93 16.5923 20.6346 16.6889 20.3988 16.8821C20.1658 17.0753 19.9911 17.3352 19.8746 17.6619C19.761 17.9858 19.7042 18.348 19.7042 18.7486C19.7042 19.1463 19.761 19.5071 19.8746 19.831C19.9911 20.1548 20.1658 20.4134 20.3988 20.6065C20.6346 20.7969 20.93 20.892 21.2852 20.892ZM26.8857 22L25.0362 15.4545H26.6087L27.7592 20.0568H27.8189L28.995 15.4545H30.5504L31.7266 20.0312H31.7905L32.924 15.4545H34.5007L32.647 22H31.0405L29.8132 17.5767H29.7237L28.4964 22H26.8857ZM38.288 22.1278C37.6317 22.1278 37.065 21.9915 36.5877 21.7188C36.1133 21.4432 35.7482 21.054 35.4925 20.5511C35.2369 20.0455 35.109 19.4503 35.109 18.7656C35.109 18.0923 35.2369 17.5014 35.4925 16.9929C35.7511 16.4815 36.1119 16.0838 36.5749 15.7997C37.038 15.5128 37.582 15.3693 38.207 15.3693C38.6104 15.3693 38.9911 15.4347 39.3491 15.5653C39.7099 15.6932 40.0281 15.892 40.3036 16.1619C40.582 16.4318 40.8008 16.7756 40.9599 17.1932C41.119 17.608 41.1985 18.1023 41.1985 18.6761V19.1491H35.8335V18.1094H39.7198C39.717 17.8139 39.6531 17.5511 39.5281 17.321C39.4031 17.0881 39.2283 16.9048 39.0039 16.7713C38.7823 16.6378 38.5238 16.571 38.2283 16.571C37.913 16.571 37.636 16.6477 37.3974 16.8011C37.1587 16.9517 36.9727 17.1506 36.8391 17.3977C36.7085 17.642 36.6417 17.9105 36.6388 18.2031V19.1108C36.6388 19.4915 36.7085 19.8182 36.8477 20.0909C36.9869 20.3608 37.1815 20.5682 37.4315 20.7131C37.6815 20.8551 37.9741 20.9261 38.3093 20.9261C38.5337 20.9261 38.7369 20.8949 38.9187 20.8324C39.1005 20.767 39.2582 20.6719 39.3917 20.5469C39.5252 20.4219 39.6261 20.267 39.6942 20.0824L41.1346 20.2443C41.0437 20.625 40.8704 20.9574 40.6147 21.2415C40.3619 21.5227 40.038 21.7415 39.6431 21.8977C39.2482 22.0511 38.7965 22.1278 38.288 22.1278ZM42.5036 22V15.4545H43.9993V16.5455H44.0675C44.1868 16.1676 44.3913 15.8764 44.6811 15.6719C44.9737 15.4645 45.3075 15.3608 45.6825 15.3608C45.7678 15.3608 45.8629 15.3651 45.968 15.3736C46.076 15.3793 46.1655 15.3892 46.2365 15.4034V16.8224C46.1712 16.7997 46.0675 16.7798 45.9254 16.7628C45.7862 16.7429 45.6513 16.733 45.5206 16.733C45.2393 16.733 44.9865 16.794 44.7621 16.9162C44.5405 17.0355 44.3658 17.2017 44.2379 17.4148C44.1101 17.6278 44.0462 17.8736 44.0462 18.152V22H42.5036ZM49.8896 22.1278C49.2333 22.1278 48.6665 21.9915 48.1893 21.7188C47.7148 21.4432 47.3498 21.054 47.0941 20.5511C46.8384 20.0455 46.7106 19.4503 46.7106 18.7656C46.7106 18.0923 46.8384 17.5014 47.0941 16.9929C47.3526 16.4815 47.7134 16.0838 48.1765 15.7997C48.6396 15.5128 49.1836 15.3693 49.8086 15.3693C50.212 15.3693 50.5927 15.4347 50.9506 15.5653C51.3114 15.6932 51.6296 15.892 51.9052 16.1619C52.1836 16.4318 52.4023 16.7756 52.5614 17.1932C52.7205 17.608 52.8001 18.1023 52.8001 18.6761V19.1491H47.435V18.1094H51.3214C51.3185 17.8139 51.2546 17.5511 51.1296 17.321C51.0046 17.0881 50.8299 16.9048 50.6055 16.7713C50.3839 16.6378 50.1254 16.571 49.8299 16.571C49.5146 16.571 49.2376 16.6477 48.9989 16.8011C48.7603 16.9517 48.5742 17.1506 48.4407 17.3977C48.31 17.642 48.2433 17.9105 48.2404 18.2031V19.1108C48.2404 19.4915 48.31 19.8182 48.4492 20.0909C48.5884 20.3608 48.783 20.5682 49.033 20.7131C49.283 20.8551 49.5756 20.9261 49.9109 20.9261C50.1353 20.9261 50.3384 20.8949 50.5202 20.8324C50.7021 20.767 50.8597 20.6719 50.9933 20.5469C51.1268 20.4219 51.2276 20.267 51.2958 20.0824L52.7362 20.2443C52.6452 20.625 52.4719 20.9574 52.2163 21.2415C51.9634 21.5227 51.6396 21.7415 51.2447 21.8977C50.8498 22.0511 50.3981 22.1278 49.8896 22.1278ZM56.5341 22.1151C56.0199 22.1151 55.5597 21.983 55.1534 21.7188C54.7472 21.4545 54.4261 21.071 54.1903 20.5682C53.9545 20.0653 53.8366 19.4545 53.8366 18.7358C53.8366 18.0085 53.956 17.3949 54.1946 16.8949C54.4361 16.392 54.7614 16.0128 55.1705 15.7571C55.5795 15.4986 56.0355 15.3693 56.5384 15.3693C56.9219 15.3693 57.2372 15.4347 57.4844 15.5653C57.7315 15.6932 57.9276 15.848 58.0724 16.0298C58.2173 16.2088 58.3295 16.3778 58.4091 16.5369H58.473V13.2727H60.0199V22H58.5028V20.9688H58.4091C58.3295 21.1278 58.2145 21.2969 58.0639 21.4759C57.9134 21.652 57.7145 21.8026 57.4673 21.9276C57.2202 22.0526 56.9091 22.1151 56.5341 22.1151ZM56.9645 20.8494C57.2912 20.8494 57.5696 20.7614 57.7997 20.5852C58.0298 20.4062 58.2045 20.1577 58.3239 19.8395C58.4432 19.5213 58.5028 19.1506 58.5028 18.7273C58.5028 18.304 58.4432 17.9361 58.3239 17.6236C58.2074 17.3111 58.0341 17.0682 57.804 16.8949C57.5767 16.7216 57.2969 16.6349 56.9645 16.6349C56.6207 16.6349 56.3338 16.7244 56.1037 16.9034C55.8736 17.0824 55.7003 17.3295 55.5838 17.6449C55.4673 17.9602 55.4091 18.321 55.4091 18.7273C55.4091 19.1364 55.4673 19.5014 55.5838 19.8224C55.7031 20.1406 55.8778 20.392 56.108 20.5767C56.3409 20.7585 56.6264 20.8494 56.9645 20.8494ZM64.7085 22V13.2727H66.2511V16.5369H66.315C66.3945 16.3778 66.5067 16.2088 66.6516 16.0298C66.7965 15.848 66.9925 15.6932 67.2397 15.5653C67.4869 15.4347 67.8022 15.3693 68.1857 15.3693C68.6914 15.3693 69.1474 15.4986 69.5536 15.7571C69.9627 16.0128 70.2866 16.392 70.5252 16.8949C70.7667 17.3949 70.8874 18.0085 70.8874 18.7358C70.8874 19.4545 70.7695 20.0653 70.5337 20.5682C70.2979 21.071 69.9769 21.4545 69.5707 21.7188C69.1644 21.983 68.7042 22.1151 68.19 22.1151C67.815 22.1151 67.5039 22.0526 67.2567 21.9276C67.0096 21.8026 66.8107 21.652 66.6602 21.4759C66.5124 21.2969 66.3974 21.1278 66.315 20.9688H66.2255V22H64.7085ZM66.2212 18.7273C66.2212 19.1506 66.2809 19.5213 66.4002 19.8395C66.5224 20.1577 66.6971 20.4062 66.9244 20.5852C67.1545 20.7614 67.4329 20.8494 67.7596 20.8494C68.1005 20.8494 68.386 20.7585 68.6161 20.5767C68.8462 20.392 69.0195 20.1406 69.136 19.8224C69.2553 19.5014 69.315 19.1364 69.315 18.7273C69.315 18.321 69.2567 17.9602 69.1403 17.6449C69.0238 17.3295 68.8505 17.0824 68.6204 16.9034C68.3903 16.7244 68.1033 16.6349 67.7596 16.6349C67.43 16.6349 67.1502 16.7216 66.9201 16.8949C66.69 17.0682 66.5153 17.3111 66.396 17.6236C66.2795 17.9361 66.2212 18.304 66.2212 18.7273ZM72.935 24.4545C72.7248 24.4545 72.5302 24.4375 72.3512 24.4034C72.1751 24.3722 72.0344 24.3352 71.9293 24.2926L72.2873 23.0909C72.5117 23.1563 72.712 23.1875 72.8881 23.1847C73.0643 23.1818 73.2191 23.1264 73.3526 23.0185C73.489 22.9134 73.604 22.7372 73.6978 22.4901L73.8299 22.1364L71.4563 15.4545H73.0927L74.6012 20.3977H74.6694L76.1822 15.4545H77.8228L75.2021 22.7926C75.0799 23.1392 74.918 23.4361 74.7163 23.6832C74.5146 23.9332 74.2674 24.1236 73.9748 24.2543C73.685 24.3878 73.3384 24.4545 72.935 24.4545Z" fill="#3366FF"/>
<path d="M167.756 12.0518H165.535L162.557 16.1354L162.537 16.1055L162.457 16.2051L162.388 16.1055L162.368 16.1354L159.39 12.0518H157.169L161.163 17.5696L156.92 23.3664H159.161L162.308 18.964L162.457 18.7449L162.617 18.964L165.764 23.3664H168.005L163.762 17.5696L167.756 12.0518Z" fill="#08083D"/>
<path d="M168.891 12.0518V13.7649H172.646V23.3664H174.549V13.7649H178.313V12.0518H168.891Z" fill="#08083D"/>
<path d="M117.358 18.6453C118.075 17.9581 118.573 17.3406 118.832 16.8027C119.091 16.2649 119.221 15.6972 119.221 15.0996C119.221 14.1334 118.872 13.3665 118.175 12.7988C117.478 12.241 116.531 11.9522 115.356 11.9522C114.48 11.9522 113.673 12.1016 112.956 12.4004C112.249 12.6992 111.661 13.1275 111.223 13.6553L112.318 14.6115C112.996 13.7948 113.962 13.3864 115.207 13.3864C115.974 13.3864 116.571 13.5557 116.99 13.8745C117.398 14.2031 117.607 14.6613 117.607 15.2589C117.607 15.6573 117.508 16.0557 117.318 16.4442C117.129 16.8326 116.751 17.3007 116.193 17.8386L111.591 22.2708V23.3664H119.709V21.962H113.922L117.358 18.6453Z" fill="#08083D"/>
<path d="M125.864 11.8227C125.117 11.8227 124.43 11.9721 123.832 12.2609C123.235 12.5597 122.757 12.9781 122.408 13.5059C122.059 14.0438 121.88 14.6713 121.88 15.3784C121.88 16.0557 122.049 16.6633 122.368 17.1812C122.697 17.6991 123.155 18.1075 123.743 18.3864C124.33 18.6652 124.998 18.8047 125.735 18.8047C126.442 18.8047 127.089 18.6752 127.657 18.4262C128.165 18.1971 128.583 17.8784 128.892 17.47L129.002 17.3306V17.729C129.002 19.1134 128.673 20.1792 128.006 20.8963C127.348 21.6234 126.422 21.9819 125.257 21.9819C124.36 21.9819 123.623 21.8027 123.085 21.454L122.468 22.709C122.826 22.9281 123.245 23.0875 123.723 23.207C124.201 23.3166 124.729 23.3763 125.267 23.3763C126.332 23.3763 127.269 23.1473 128.065 22.6891C128.862 22.2309 129.49 21.5536 129.938 20.6772C130.386 19.8007 130.605 18.715 130.605 17.4601C130.605 15.6772 130.187 14.2729 129.37 13.2968C128.553 12.3207 127.368 11.8227 125.864 11.8227ZM128.294 16.4242C128.075 16.7529 127.767 17.0218 127.368 17.2111C126.97 17.4003 126.512 17.4999 126.014 17.4999C125.237 17.4999 124.599 17.3007 124.141 16.9123C123.683 16.5238 123.454 15.986 123.454 15.3286C123.454 14.6713 123.683 14.1334 124.141 13.735C124.599 13.3366 125.207 13.1374 125.944 13.1374C126.512 13.1374 127 13.237 127.408 13.4362C127.806 13.6354 128.115 13.8944 128.324 14.2231C128.533 14.5517 128.643 14.9103 128.643 15.3087C128.623 15.7171 128.514 16.0856 128.294 16.4242Z" fill="#08083D"/>
<path d="M141.79 19.9003L135.466 12.0518H133.922V23.3664H135.844V15.5179L142.109 23.3066L142.159 23.3664H143.703V12.0518H141.79V19.9003Z" fill="#08083D"/>
<path d="M147.059 23.3664H155.027V21.6532H148.971V18.466H154.469V16.7828H148.971V13.7649H155.027V12.0518H147.059V23.3664Z" fill="#08083D"/>
<path d="M101.86 10V11.494C102.697 11.494 103.384 12.1812 103.384 13.0179V21.9122C103.384 22.5198 103.066 23.0476 102.518 23.3265C101.98 23.6054 101.352 23.5556 100.864 23.197L90.2968 15.5278V17.3505L99.9879 24.4022C100.526 24.7907 101.163 24.9899 101.801 24.9899C102.279 24.9899 102.757 24.8803 103.195 24.6512C104.231 24.1233 104.878 23.0676 104.878 21.9022V13.0179C104.878 11.3546 103.524 10 101.86 10Z" fill="#3366FF"/>
<path d="M89.3605 11.6735C89.8984 11.3946 90.5259 11.4444 91.0139 11.803L101.581 19.522V17.6495L91.9003 10.5978C90.9541 9.91055 89.7291 9.81095 88.6832 10.3488C87.6474 10.8767 87 11.9225 87 13.0878V21.9821C87 23.6454 88.3546 25 90.0179 25V23.506C89.1812 23.506 88.494 22.8188 88.494 21.9821V13.0878C88.494 12.4802 88.8227 11.9524 89.3605 11.6735Z" fill="#3366FF"/>
<rect x="0.5" y="0.5" width="187.313" height="34" rx="9.5" stroke="#3366FF"/>
</svg>
